<?xml version="1.0" encoding="UTF-8"?><svg xmlns="http://www.w3.org/2000/svg" width="474.12" height="468.54" viewBox="0 0 474.12 468.54"><defs><style>.c{fill:#fff;}</style></defs><g id="a"><g><path class="c" d="M346.08,120.15c-16.17,0-31.85,11.27-31.85,28.42,0,5.39,.49,10.78,3.43,15.19,8.82,14.7,56.35,33.32,71.54,40.18,19.1,8.77,36.42,18.01,50.36,29.53,.97,.8,2.85,2.43,2.85,2.43v-80.47h-63.01c-2.94-20.09-9.8-35.28-33.32-35.28Z"/><path class="c" d="M439.21,390.58c-22.76,19.23-55.03,28.48-91.66,28.48-73.01,0-130.83-37.73-130.83-115.15v-11.76h92.12c0,23.52,10.78,49.49,37.73,49.49,19.11,0,35.28-15.19,35.28-34.79,0-23.52-19.6-31.36-38.71-39.69-10.78-4.9-21.56-9.31-32.34-13.72-47.04-19.6-88.69-47.04-88.69-103.88,0-67.62,65.17-106.82,126.91-106.82,31.52,0,66.57,10.56,90.1,32.74,1.12,1.06,3.28,3.24,3.28,3.25V0H0V234.27l221.2,234.27h221.2v-80.78s-2.11,1.91-3.19,2.82Z"/></g></g><g id="b"><g><path class="c" d="M434.21,394.63c-.39,.29-.78,.57-1.17,.86,.39-.28,.78-.57,1.17-.86Z"/><path class="c" d="M438.58,391.22c-.37,.31-.74,.62-1.12,.92,.38-.3,.75-.61,1.12-.92Z"/><path class="c" d="M436.42,392.95c-.38,.3-.76,.6-1.15,.89,.39-.29,.77-.59,1.15-.89Z"/><path class="c" d="M440.24,389.82c-.18,.16-.36,.31-.53,.46,.18-.15,.35-.3,.53-.46Z"/><path class="c" d="M431.94,396.25c-.4,.28-.79,.55-1.19,.82,.4-.27,.8-.55,1.19-.82Z"/><path class="c" d="M429.63,397.82c-.4,.26-.81,.53-1.22,.79,.41-.26,.81-.52,1.22-.79Z"/><path class="c" d="M389.38,414.53c-.52,.12-1.04,.24-1.57,.35,.52-.12,1.05-.23,1.57-.35Z"/><path class="c" d="M360.02,43.15c-.44-.03-.88-.07-1.32-.1,.44,.03,.88,.06,1.32,.1Z"/><path class="c" d="M363.26,43.43c-.45-.04-.9-.09-1.35-.13,.45,.04,.9,.08,1.35,.13Z"/><path class="c" d="M353.36,42.8c-.35-.01-.7-.02-1.04-.03,.35,0,.69,.02,1.04,.03Z"/><path class="c" d="M427.27,399.32c-.41,.26-.83,.51-1.25,.76,.42-.25,.83-.51,1.25-.76Z"/><path class="c" d="M356.74,42.94c-.41-.02-.83-.05-1.24-.06,.41,.02,.83,.04,1.24,.06Z"/><path class="c" d="M424.85,400.77c-.42,.25-.85,.49-1.27,.73,.43-.24,.85-.49,1.27-.73Z"/><path class="c" d="M366.5,43.78c-.45-.05-.89-.1-1.34-.15,.45,.05,.89,.1,1.34,.15Z"/><path class="c" d="M406.64,409.34c-.48,.18-.96,.35-1.44,.53,.48-.17,.96-.35,1.44-.53Z"/><path class="c" d="M401.05,411.29c-.49,.16-.99,.32-1.49,.47,.5-.16,1-.31,1.49-.47Z"/><path class="c" d="M409.38,408.29c-.47,.19-.94,.37-1.41,.55,.47-.18,.94-.37,1.41-.55Z"/><path class="c" d="M395.29,413.02c-.51,.14-1.01,.28-1.52,.41,.51-.14,1.02-.27,1.52-.41Z"/><path class="c" d="M392.35,413.8c-.51,.13-1.03,.26-1.55,.38,.52-.13,1.03-.25,1.55-.38Z"/><path class="c" d="M403.87,410.35c-.49,.17-.97,.33-1.46,.5,.49-.16,.98-.33,1.46-.5Z"/><path class="c" d="M419.88,403.5c-.44,.23-.88,.45-1.32,.67,.44-.22,.88-.45,1.32-.67Z"/><path class="c" d="M422.39,402.16c-.43,.24-.86,.47-1.3,.7,.43-.23,.87-.47,1.3-.7Z"/><path class="c" d="M412.07,407.17c-.46,.2-.93,.39-1.39,.58,.47-.19,.93-.39,1.39-.58Z"/><path class="c" d="M414.72,406c-.46,.21-.91,.41-1.37,.61,.46-.2,.92-.41,1.37-.61Z"/><path class="c" d="M417.32,404.78c-.45,.22-.89,.43-1.34,.64,.45-.21,.9-.43,1.34-.64Z"/><path class="c" d="M442.19,388.09c-.34,.3-.87,.78-1.41,1.26,.47-.42,.95-.83,1.41-1.26Z"/><path class="c" d="M424.55,63.98c-.36-.23-.73-.46-1.09-.69,.36,.23,.73,.46,1.09,.69Z"/><path class="c" d="M429.91,67.68c-.11-.08-.23-.16-.34-.25,.11,.08,.23,.16,.34,.25Z"/><path class="c" d="M427.26,65.79c-.31-.21-.62-.42-.93-.63,.31,.21,.62,.42,.93,.63Z"/><path class="c" d="M369.73,44.2c-.43-.06-.86-.12-1.29-.17,.43,.06,.86,.11,1.29,.17Z"/><path class="c" d="M418.95,60.58c-.4-.23-.8-.45-1.2-.67,.4,.22,.8,.45,1.2,.67Z"/><path class="c" d="M416.06,58.98c-.4-.21-.8-.43-1.2-.63,.4,.21,.8,.42,1.2,.63Z"/><path class="c" d="M433.25,70.25c-.26-.2-.51-.41-.76-.62,.26,.2,.51,.41,.76,.62Z"/><path class="c" d="M439.99,76.16c.31,.3,.64,.63,.96,.95-.32-.32-.64-.63-.96-.95Z"/><path class="c" d="M471.18,155.43c-.98-28.42-5.39-48.51-24.01-71.54-1.47-1.78-3.01-3.51-4.61-5.17v76.71s28.62,0,28.62,0Z"/><path class="c" d="M413.08,57.45c-.39-.19-.77-.39-1.16-.58,.39,.19,.77,.38,1.16,.58Z"/><path class="c" d="M435.93,72.48c-.31-.27-.62-.54-.94-.8,.32,.26,.63,.54,.94,.8Z"/><path class="c" d="M438.41,74.69c-.32-.3-.65-.6-.98-.89,.33,.29,.65,.59,.98,.89Z"/><path class="c" d="M421.79,62.25c-.39-.23-.78-.47-1.16-.7,.39,.23,.78,.46,1.16,.7Z"/><path class="c" d="M383.82,46.88c-.4-.1-.8-.2-1.2-.29,.4,.09,.8,.19,1.2,.29Z"/><path class="c" d="M390.35,48.61c-.44-.13-.88-.26-1.33-.38,.44,.12,.89,.25,1.33,.38Z"/><path class="c" d="M409.98,55.95c-.34-.16-.69-.33-1.03-.48,.35,.16,.69,.32,1.03,.48Z"/><path class="c" d="M387.12,47.71c-.43-.11-.86-.23-1.3-.34,.43,.11,.86,.23,1.3,.34Z"/><path class="c" d="M372.97,44.69c-.39-.06-.78-.12-1.17-.18,.39,.06,.78,.12,1.17,.18Z"/><path class="c" d="M376.19,45.25c-.24-.04-.48-.08-.71-.13,.24,.04,.48,.08,.71,.13Z"/><path class="c" d="M380.28,46.07c-.29-.06-.58-.13-.87-.19,.29,.06,.58,.13,.87,.19Z"/><path class="c" d="M402.89,52.89c-.31-.12-.62-.24-.93-.36,.31,.12,.62,.24,.93,.36Z"/><path class="c" d="M406.38,54.33c-.15-.06-.3-.13-.45-.2,.15,.06,.3,.13,.45,.2Z"/><path class="c" d="M393.53,49.57c-.44-.14-.88-.27-1.32-.41,.44,.13,.88,.27,1.32,.41Z"/><path class="c" d="M396.68,50.61c-.43-.15-.86-.29-1.28-.43,.43,.14,.86,.28,1.28,.43Z"/><path class="c" d="M399.8,51.71c-.4-.15-.8-.29-1.19-.43,.4,.14,.8,.28,1.19,.43Z"/><path class="c" d="M398.19,412.18c-.5,.15-1,.3-1.51,.44,.5-.15,1.01-.29,1.51-.44Z"/><path class="c" d="M370.79,417.75c-.58,.07-1.16,.13-1.74,.19,.58-.06,1.16-.12,1.74-.19Z"/><path class="c" d="M402.85,210.41c-.39-.2-.79-.39-1.19-.59,.4,.2,.79,.39,1.19,.59Z"/><path class="c" d="M367.58,418.1c-.59,.06-1.18,.11-1.77,.16,.59-.05,1.19-.1,1.77-.16Z"/><path class="c" d="M351.07,419.03c-1.12,.02-2.25,.03-3.38,.03,1.13,0,2.26,0,3.38-.03Z"/><path class="c" d="M440.84,234.43c-.14-.12-.28-.24-.42-.36,.14,.12,.28,.24,.42,.36Z"/><path class="c" d="M398.85,208.43c-.46-.22-.91-.44-1.37-.66,.46,.22,.92,.44,1.37,.66Z"/><path class="c" d="M373.97,417.35c-.56,.08-1.13,.15-1.7,.22,.57-.07,1.14-.14,1.7-.22Z"/><path class="c" d="M364.34,418.39c-.61,.05-1.22,.09-1.83,.14,.61-.04,1.22-.09,1.83-.14Z"/><path class="c" d="M361.07,418.63c-.63,.04-1.27,.07-1.91,.11,.64-.04,1.27-.07,1.91-.11Z"/><path class="c" d="M419.23,219.29c-.34-.2-.69-.4-1.04-.61,.35,.2,.69,.4,1.04,.61Z"/><path class="c" d="M415.57,217.18c-.42-.24-.85-.48-1.27-.72,.43,.24,.85,.48,1.27,.72Z"/><path class="c" d="M411.71,215.03c-.39-.21-.79-.43-1.18-.64,.4,.21,.79,.43,1.18,.64Z"/><path class="c" d="M407.04,212.55c-.1-.05-.2-.11-.3-.16,.1,.05,.2,.11,.3,.16Z"/><path class="c" d="M354.43,418.95c-.73,.02-1.46,.04-2.19,.05,.73-.02,1.46-.03,2.19-.05Z"/><path class="c" d="M423.27,221.75c-.17-.1-.33-.21-.49-.31,.17,.1,.33,.21,.49,.31Z"/><path class="c" d="M377.12,416.89c-.55,.09-1.11,.16-1.67,.24,.56-.08,1.12-.16,1.67-.24Z"/><path class="c" d="M383.32,415.82c-.54,.1-1.09,.2-1.63,.3,.54-.1,1.09-.2,1.63-.3Z"/><path class="c" d="M427.32,224.36c-.37-.24-.73-.49-1.1-.73,.37,.24,.73,.48,1.1,.73Z"/><path class="c" d="M437.73,231.89c-.19-.15-.37-.3-.56-.45,.19,.15,.37,.3,.56,.45Z"/><path class="c" d="M386.36,415.2c-.53,.11-1.06,.22-1.6,.33,.53-.11,1.07-.21,1.6-.33Z"/><path class="c" d="M434.04,229.05c-.29-.22-.59-.43-.88-.64,.29,.21,.59,.43,.88,.64Z"/><path class="c" d="M430.77,226.71c-.38-.26-.76-.53-1.14-.79,.38,.26,.76,.52,1.14,.79Z"/><path class="c" d="M474.12,307.82c0-32.65-12.14-54.78-31.56-71.89v151.81c19.77-18.27,31.56-44.72,31.56-79.92Z"/><path class="c" d="M380.24,416.38c-.55,.09-1.1,.18-1.65,.27,.55-.09,1.1-.18,1.65-.27Z"/><path class="c" d="M394.65,206.42c-.41-.2-.83-.39-1.24-.59,.42,.2,.83,.39,1.24,.59Z"/><path class="c" d="M357.76,418.82c-.67,.03-1.34,.06-2.01,.08,.67-.03,1.34-.05,2.01-.08Z"/><path class="c" d="M429.64,225.92c-.76-.53-1.54-1.05-2.32-1.56,.78,.52,1.55,1.04,2.32,1.56Z"/><path class="c" d="M418.2,218.69c-.87-.51-1.74-1.01-2.62-1.51,.88,.5,1.75,1,2.62,1.51Z"/><path class="c" d="M385.82,47.37c-.67-.17-1.34-.33-2.01-.49,.67,.16,1.34,.32,2.01,.49Z"/><path class="c" d="M389.02,48.23c-.63-.18-1.27-.35-1.9-.52,.63,.17,1.27,.34,1.9,.52Z"/><path class="c" d="M401.95,52.53c-.72-.28-1.43-.55-2.15-.82,.72,.27,1.44,.54,2.15,.82Z"/><path class="c" d="M382.62,46.59c-.78-.18-1.56-.35-2.34-.52,.78,.17,1.56,.34,2.34,.52Z"/><path class="c" d="M426.22,223.63c-.97-.63-1.96-1.26-2.95-1.88,1,.62,1.98,1.25,2.95,1.88Z"/><path class="c" d="M422.77,221.44c-1.17-.72-2.35-1.44-3.54-2.14,1.19,.71,2.37,1.42,3.54,2.14Z"/><path class="c" d="M395.4,50.18c-.62-.21-1.24-.41-1.87-.61,.62,.2,1.25,.4,1.87,.61Z"/><path class="c" d="M398.61,51.28c-.64-.23-1.28-.46-1.92-.68,.64,.22,1.28,.45,1.92,.68Z"/><path class="c" d="M392.21,49.16c-.62-.19-1.24-.37-1.86-.55,.62,.18,1.24,.37,1.86,.55Z"/><path class="c" d="M405.93,54.14c-1.01-.43-2.03-.85-3.05-1.25,1.02,.4,2.04,.82,3.05,1.25Z"/><path class="c" d="M434.99,71.68c-.57-.48-1.16-.95-1.74-1.42,.59,.47,1.17,.94,1.74,1.42Z"/><path class="c" d="M426.33,65.16c-.59-.4-1.18-.79-1.77-1.18,.6,.39,1.19,.78,1.77,1.18Z"/><path class="c" d="M429.56,67.43c-.76-.55-1.53-1.1-2.3-1.64,.78,.54,1.54,1.08,2.3,1.64Z"/><path class="c" d="M397.48,207.77c-.94-.45-1.88-.9-2.83-1.35,.95,.45,1.89,.9,2.83,1.35Z"/><path class="c" d="M393.41,205.83c-1.35-.63-2.7-1.26-4.06-1.89,1.36,.63,2.72,1.26,4.06,1.89Z"/><path class="c" d="M432.48,69.64c-.85-.67-1.71-1.32-2.58-1.96,.87,.64,1.73,1.3,2.58,1.96Z"/><path class="c" d="M442.55,78.72s-.75-.76-1.6-1.61c.54,.53,1.08,1.06,1.6,1.61h0Z"/><path class="c" d="M439.27,75.47c-.28-.27-.57-.52-.86-.78,.53,.49,1.06,.98,1.58,1.48-.26-.26-.51-.5-.72-.7Z"/><path class="c" d="M379.41,45.88c-1.07-.22-2.14-.44-3.22-.64,1.07,.2,2.15,.41,3.22,.64Z"/><path class="c" d="M437.44,73.79c-.5-.44-1-.88-1.51-1.31,.51,.43,1.01,.87,1.51,1.31Z"/><path class="c" d="M440.84,234.43c.58,.49,1.15,1,1.71,1.5v-.02s-.86-.74-1.71-1.47Z"/><path class="c" d="M437.73,231.89c.91,.72,1.8,1.45,2.68,2.18-.26-.22-.51-.43-.71-.6-.65-.53-1.31-1.06-1.97-1.58Z"/><path class="c" d="M411.92,56.87c-.64-.31-1.29-.62-1.94-.92,.65,.3,1.3,.61,1.94,.92Z"/><path class="c" d="M410.53,214.39c-1.15-.62-2.31-1.23-3.49-1.84,1.17,.61,2.33,1.22,3.49,1.84Z"/><path class="c" d="M408.95,55.47c-.85-.39-1.71-.76-2.56-1.13,.86,.37,1.71,.74,2.56,1.13Z"/><path class="c" d="M414.3,216.46c-.86-.48-1.72-.96-2.59-1.43,.87,.47,1.73,.95,2.59,1.43Z"/><path class="c" d="M414.86,58.35c-.59-.31-1.18-.61-1.78-.9,.59,.3,1.19,.6,1.78,.9Z"/><path class="c" d="M423.46,63.29c-.56-.35-1.11-.7-1.68-1.04,.56,.34,1.12,.69,1.68,1.04Z"/><path class="c" d="M401.67,209.82c-.93-.46-1.87-.92-2.81-1.38,.94,.46,1.88,.92,2.81,1.38Z"/><path class="c" d="M420.62,61.55c-.55-.33-1.11-.65-1.67-.97,.56,.32,1.11,.64,1.67,.97Z"/><path class="c" d="M406.74,212.39c-1.28-.66-2.58-1.32-3.88-1.98,1.3,.65,2.6,1.31,3.88,1.98Z"/><path class="c" d="M417.76,59.91c-.56-.31-1.13-.62-1.7-.93,.57,.3,1.14,.61,1.7,.93Z"/><path class="c" d="M439.36,390.58c.11-.09,.23-.2,.35-.3-.37,.32-.75,.63-1.13,.94,.26-.21,.52-.42,.78-.64Z"/><path class="c" d="M372.27,417.56c-.49,.06-.98,.13-1.48,.18,.49-.06,.99-.12,1.48-.18Z"/><path class="c" d="M410.68,407.76c-.43,.18-.87,.36-1.3,.53,.44-.17,.87-.35,1.3-.53Z"/><path class="c" d="M418.56,404.17c-.41,.21-.82,.41-1.24,.61,.41-.2,.83-.4,1.24-.61Z"/><path class="c" d="M413.35,406.62c-.42,.19-.85,.37-1.28,.55,.43-.18,.85-.37,1.28-.55Z"/><path class="c" d="M375.45,417.14c-.49,.07-.98,.14-1.48,.21,.49-.07,.99-.14,1.48-.21Z"/><path class="c" d="M415.97,405.42c-.42,.2-.84,.39-1.26,.58,.42-.19,.84-.38,1.26-.58Z"/><path class="c" d="M365.81,418.26c-.49,.04-.98,.09-1.47,.13,.49-.04,.98-.09,1.47-.13Z"/><path class="c" d="M421.09,402.86c-.4,.21-.81,.43-1.21,.63,.41-.21,.81-.42,1.21-.63Z"/><path class="c" d="M426.02,400.08c-.39,.23-.78,.46-1.16,.69,.39-.23,.78-.45,1.16-.69Z"/><path class="c" d="M369.05,417.94c-.49,.05-.98,.11-1.47,.16,.49-.05,.98-.1,1.47-.16Z"/><path class="c" d="M423.58,401.5c-.39,.22-.79,.44-1.19,.66,.4-.22,.8-.44,1.19-.66Z"/><path class="c" d="M396.68,412.62c-.46,.13-.93,.27-1.4,.4,.47-.13,.93-.26,1.4-.4Z"/><path class="c" d="M407.96,408.84c-.44,.17-.88,.34-1.32,.5,.44-.16,.88-.33,1.32-.5Z"/><path class="c" d="M390.8,414.19c-.48,.12-.95,.23-1.43,.34,.48-.11,.95-.23,1.43-.34Z"/><path class="c" d="M399.56,411.76c-.46,.14-.91,.28-1.37,.42,.46-.14,.91-.28,1.37-.42Z"/><path class="c" d="M393.76,413.43c-.47,.12-.94,.25-1.41,.37,.47-.12,.94-.25,1.41-.37Z"/><path class="c" d="M384.77,415.53c-.48,.1-.96,.2-1.45,.29,.48-.09,.96-.19,1.45-.29Z"/><path class="c" d="M378.59,416.66c-.49,.08-.98,.16-1.47,.24,.49-.08,.98-.16,1.47-.24Z"/><path class="c" d="M405.2,409.87c-.44,.16-.89,.32-1.34,.47,.45-.16,.89-.31,1.34-.47Z"/><path class="c" d="M381.69,416.12c-.48,.09-.97,.18-1.45,.26,.49-.08,.97-.17,1.45-.26Z"/><path class="c" d="M402.4,410.84c-.45,.15-.9,.3-1.35,.45,.45-.15,.9-.3,1.35-.45Z"/><path class="c" d="M361.92,43.3c-.63-.06-1.27-.11-1.9-.15,.63,.05,1.27,.1,1.9,.15Z"/><path class="c" d="M358.7,43.05c-.65-.04-1.31-.08-1.96-.11,.65,.03,1.3,.07,1.96,.11Z"/><path class="c" d="M365.16,43.62c-.63-.07-1.27-.14-1.9-.2,.63,.06,1.26,.13,1.9,.2Z"/><path class="c" d="M375.48,45.12c-.84-.15-1.67-.3-2.51-.44,.84,.14,1.67,.28,2.51,.44Z"/><path class="c" d="M355.5,42.87c-.71-.03-1.43-.05-2.14-.07,.71,.02,1.42,.04,2.14,.07Z"/><path class="c" d="M352.24,419c-.39,0-.78,.02-1.17,.03,.39,0,.78-.02,1.17-.03Z"/><path class="c" d="M433.16,228.41c-.79-.57-1.58-1.14-2.38-1.7,.8,.56,1.6,1.13,2.38,1.7Z"/><path class="c" d="M371.8,44.51c-.69-.11-1.38-.21-2.07-.31,.69,.1,1.38,.2,2.07,.31Z"/><path class="c" d="M352.32,42.77c-1.05-.02-2.11-.04-3.15-.04,1.05,0,2.1,.01,3.15,.04Z"/><path class="c" d="M368.44,44.02c-.65-.09-1.29-.17-1.94-.25,.65,.08,1.29,.16,1.94,.25Z"/><path class="c" d="M437.17,231.44c-1.03-.81-2.07-1.6-3.13-2.39,1.06,.78,2.1,1.58,3.13,2.39Z"/><path class="c" d="M435.27,393.84c-.35,.27-.71,.53-1.06,.79,.36-.26,.71-.52,1.06-.79Z"/><path class="c" d="M359.16,418.74c-.47,.03-.93,.06-1.4,.08,.47-.02,.93-.05,1.4-.08Z"/><path class="c" d="M433.04,395.48c-.36,.26-.73,.51-1.09,.77,.37-.25,.73-.51,1.09-.77Z"/><path class="c" d="M428.41,398.61c-.38,.24-.76,.48-1.14,.71,.38-.24,.76-.47,1.14-.71Z"/><path class="c" d="M430.75,397.07c-.37,.25-.75,.5-1.12,.74,.38-.25,.75-.49,1.12-.74Z"/><path class="c" d="M362.5,418.52c-.48,.03-.96,.07-1.44,.1,.48-.03,.96-.07,1.44-.1Z"/><path class="c" d="M442.56,387.75h0c-.12,.1-.25,.22-.37,.33,.23-.2,.37-.33,.37-.33Z"/><path class="c" d="M437.46,392.14c-.34,.28-.69,.54-1.04,.82,.35-.27,.7-.54,1.04-.82Z"/><path class="c" d="M355.75,418.9c-.44,.02-.88,.04-1.32,.05,.44-.01,.88-.04,1.32-.05Z"/><path class="c" d="M440.77,389.35c-.18,.16-.36,.32-.54,.47,.18-.15,.36-.31,.54-.47Z"/><path class="c" d="M387.81,414.88c-.48,.11-.96,.21-1.44,.32,.48-.1,.96-.21,1.44-.32Z"/></g></g></svg>