<?xml version="1.0" encoding="UTF-8"?><svg id="a" xmlns="http://www.w3.org/2000/svg" width="2644.92" height="512" xmlns:xlink="http://www.w3.org/1999/xlink" viewBox="0 0 2644.92 512"><defs><style>.e{clip-path:url(#d);}.f{clip-path:url(#b);}.g{fill:#363a94;}.h{fill:none;}.i{clip-path:url(#c);}</style><clipPath id="b"><rect class="h" width="512" height="512"/></clipPath><clipPath id="c"><rect class="h" width="512" height="512"/></clipPath><clipPath id="d"><rect class="h" width="512" height="512"/></clipPath></defs><g class="f"><g class="i"><path class="g" d="M365.02,141.88c-16.17,0-31.85,11.27-31.85,28.42,0,5.39,.49,10.78,3.43,15.19,8.82,14.7,56.35,33.32,71.54,40.18,19.1,8.77,36.42,18.01,50.36,29.53,.96,.8,2.85,2.43,2.85,2.43v-80.47h-63.01c-2.94-20.09-9.8-35.28-33.32-35.28"/><path class="g" d="M458.15,412.31c-22.77,19.23-55.03,28.48-91.66,28.48-73.01,0-130.83-37.73-130.83-115.15v-11.76h92.12c0,23.52,10.78,49.49,37.73,49.49,19.11,0,35.28-15.19,35.28-34.79,0-23.52-19.6-31.36-38.71-39.69-10.78-4.9-21.56-9.31-32.34-13.72-47.04-19.6-88.69-47.04-88.69-103.88,0-67.62,65.17-106.82,126.91-106.82,31.52,0,66.57,10.56,90.1,32.74,1.12,1.05,3.28,3.24,3.28,3.25V21.73H18.94V256l221.2,234.27h221.2v-80.78s-2.11,1.91-3.19,2.82"/></g><g class="e"><path class="g" d="M453.15,416.36c-.39,.29-.78,.57-1.17,.86,.39-.28,.78-.57,1.17-.86"/><path class="g" d="M457.52,412.95c-.37,.31-.74,.62-1.12,.92,.38-.3,.75-.61,1.12-.92"/><path class="g" d="M455.36,414.68c-.38,.3-.76,.6-1.15,.89,.39-.29,.77-.59,1.15-.89"/><path class="g" d="M459.18,411.55c-.18,.16-.36,.31-.53,.46,.18-.15,.35-.31,.53-.46"/><path class="g" d="M450.88,417.98c-.4,.28-.79,.55-1.19,.82,.4-.27,.8-.55,1.19-.82"/><path class="g" d="M448.57,419.55c-.4,.27-.81,.53-1.22,.79,.41-.26,.81-.52,1.22-.79"/><path class="g" d="M408.32,436.26c-.52,.12-1.04,.24-1.57,.36,.52-.12,1.05-.23,1.57-.36"/><path class="g" d="M378.96,64.88c-.44-.03-.88-.07-1.32-.1,.44,.03,.88,.06,1.32,.1"/><path class="g" d="M382.2,65.16c-.45-.04-.9-.09-1.35-.12,.45,.04,.9,.08,1.35,.12"/><path class="g" d="M372.3,64.53c-.35,0-.7-.02-1.04-.03,.35,0,.7,.02,1.04,.03"/><path class="g" d="M446.21,421.05c-.42,.26-.83,.51-1.25,.76,.42-.25,.83-.51,1.25-.76"/><path class="g" d="M375.68,64.67c-.41-.02-.83-.05-1.24-.06,.41,.02,.83,.04,1.24,.06"/><path class="g" d="M443.79,422.5c-.42,.25-.85,.49-1.27,.73,.43-.24,.85-.49,1.27-.73"/><path class="g" d="M385.44,65.51c-.45-.05-.89-.1-1.34-.15,.45,.05,.89,.1,1.34,.15"/><path class="g" d="M425.58,431.07c-.48,.18-.96,.35-1.44,.53,.48-.17,.96-.35,1.44-.53"/><path class="g" d="M419.99,433.02c-.49,.16-.99,.32-1.49,.47,.5-.15,1-.31,1.49-.47"/><path class="g" d="M428.32,430.02c-.47,.19-.94,.37-1.41,.56,.47-.18,.94-.37,1.41-.56"/><path class="g" d="M414.23,434.75c-.51,.14-1.01,.28-1.52,.41,.51-.14,1.02-.27,1.52-.41"/><path class="g" d="M411.29,435.53c-.51,.13-1.03,.26-1.55,.38,.52-.13,1.03-.25,1.55-.38"/><path class="g" d="M422.81,432.08c-.49,.17-.97,.34-1.46,.5,.49-.16,.98-.33,1.46-.5"/><path class="g" d="M438.82,425.23c-.44,.23-.88,.45-1.32,.67,.44-.22,.88-.44,1.32-.67"/><path class="g" d="M441.33,423.89c-.43,.24-.86,.47-1.3,.7,.43-.23,.87-.47,1.3-.7"/><path class="g" d="M431.01,428.9c-.46,.2-.93,.39-1.39,.58,.46-.19,.93-.39,1.39-.58"/><path class="g" d="M433.66,427.73c-.46,.21-.91,.41-1.37,.62,.46-.2,.92-.41,1.37-.62"/><path class="g" d="M436.26,426.51c-.45,.22-.89,.43-1.35,.64,.45-.21,.9-.43,1.35-.64"/><path class="g" d="M461.13,409.82c-.34,.3-.87,.78-1.41,1.26,.47-.42,.95-.83,1.41-1.26"/><path class="g" d="M443.5,85.71c-.36-.23-.73-.46-1.09-.69,.36,.23,.73,.46,1.09,.69"/><path class="g" d="M448.85,89.41c-.11-.08-.23-.16-.34-.25,.11,.08,.23,.16,.34,.25"/><path class="g" d="M446.2,87.52c-.31-.21-.62-.42-.93-.63,.31,.21,.62,.42,.93,.63"/><path class="g" d="M388.67,65.93c-.43-.06-.86-.12-1.29-.17,.43,.06,.86,.11,1.29,.17"/><path class="g" d="M437.89,82.31c-.4-.23-.8-.45-1.2-.67,.4,.22,.8,.45,1.2,.67"/><path class="g" d="M435,80.71c-.4-.21-.8-.43-1.2-.63,.4,.21,.8,.42,1.2,.63"/><path class="g" d="M452.19,91.98c-.26-.2-.51-.41-.77-.62,.26,.2,.51,.41,.77,.62"/><path class="g" d="M458.93,97.9c.31,.31,.64,.63,.96,.95-.32-.32-.64-.63-.96-.95"/><path class="g" d="M490.12,177.16c-.98-28.42-5.39-48.51-24.01-71.54-1.47-1.79-3.01-3.51-4.61-5.17v76.71h28.62Z"/><path class="g" d="M432.02,79.18c-.39-.19-.77-.39-1.16-.58,.39,.19,.77,.38,1.16,.58"/><path class="g" d="M454.87,94.21c-.31-.27-.62-.54-.94-.8,.32,.26,.63,.54,.94,.8"/><path class="g" d="M457.35,96.42c-.33-.3-.65-.6-.98-.89,.33,.29,.65,.59,.98,.89"/><path class="g" d="M440.73,83.98c-.39-.23-.78-.46-1.16-.7,.39,.23,.78,.46,1.16,.7"/><path class="g" d="M402.76,68.61c-.4-.1-.8-.2-1.2-.29,.4,.09,.8,.19,1.2,.29"/><path class="g" d="M409.29,70.34c-.44-.13-.88-.25-1.33-.38,.44,.12,.89,.25,1.33,.38"/><path class="g" d="M428.92,77.68c-.35-.16-.69-.32-1.03-.48,.35,.16,.69,.32,1.03,.48"/><path class="g" d="M406.06,69.45c-.43-.11-.86-.23-1.3-.34,.43,.11,.87,.23,1.3,.34"/><path class="g" d="M391.91,66.42c-.39-.06-.78-.12-1.17-.18,.39,.06,.78,.12,1.17,.18"/><path class="g" d="M395.13,66.98c-.24-.04-.48-.08-.71-.12,.24,.04,.48,.08,.71,.12"/><path class="g" d="M399.22,67.8c-.29-.06-.58-.13-.87-.19,.29,.06,.58,.13,.87,.19"/><path class="g" d="M421.83,74.62c-.31-.12-.62-.24-.93-.36,.31,.12,.62,.23,.93,.36"/><path class="g" d="M425.32,76.06c-.15-.06-.3-.13-.45-.2,.15,.06,.3,.13,.45,.2"/><path class="g" d="M412.47,71.3c-.44-.14-.88-.27-1.32-.41,.44,.13,.88,.27,1.32,.41"/><path class="g" d="M415.63,72.34c-.43-.15-.86-.29-1.29-.43,.43,.14,.86,.28,1.29,.43"/><path class="g" d="M418.74,73.44c-.4-.15-.8-.29-1.19-.43,.4,.14,.8,.28,1.19,.43"/><path class="g" d="M417.13,433.91c-.5,.15-1,.3-1.51,.44,.5-.14,1.01-.29,1.51-.44"/><path class="g" d="M389.73,439.48c-.58,.07-1.16,.13-1.74,.19,.58-.06,1.16-.12,1.74-.19"/><path class="g" d="M421.79,232.14c-.39-.2-.79-.39-1.19-.59,.4,.2,.79,.39,1.19,.59"/><path class="g" d="M386.52,439.83c-.59,.06-1.18,.11-1.77,.16,.59-.05,1.18-.1,1.77-.16"/><path class="g" d="M370.02,440.76c-1.12,.02-2.25,.03-3.38,.03,1.13,0,2.26,0,3.38-.03"/><path class="g" d="M459.78,256.16c-.14-.12-.28-.24-.42-.36,.14,.12,.28,.24,.42,.36"/><path class="g" d="M417.79,230.16c-.46-.22-.91-.44-1.37-.66,.46,.22,.92,.44,1.37,.66"/><path class="g" d="M392.91,439.08c-.57,.08-1.13,.15-1.7,.22,.57-.07,1.14-.14,1.7-.22"/><path class="g" d="M383.28,440.12c-.61,.05-1.22,.09-1.83,.14,.61-.04,1.22-.09,1.83-.14"/><path class="g" d="M380.01,440.36c-.63,.04-1.27,.07-1.91,.11,.64-.03,1.27-.07,1.91-.11"/><path class="g" d="M438.18,241.02c-.34-.2-.69-.4-1.04-.61,.35,.2,.69,.4,1.04,.61"/><path class="g" d="M434.52,238.91c-.42-.24-.85-.48-1.27-.72,.43,.24,.85,.48,1.27,.72"/><path class="g" d="M430.65,236.76c-.4-.21-.79-.43-1.18-.64,.4,.21,.79,.43,1.18,.64"/><path class="g" d="M425.98,234.28c-.1-.05-.2-.11-.31-.16,.1,.05,.2,.11,.31,.16"/><path class="g" d="M373.37,440.68c-.73,.02-1.46,.04-2.19,.05,.73-.02,1.46-.03,2.19-.05"/><path class="g" d="M442.21,243.48c-.17-.1-.33-.21-.49-.31,.17,.1,.33,.21,.49,.31"/><path class="g" d="M396.06,438.62c-.56,.09-1.11,.16-1.67,.24,.56-.08,1.12-.16,1.67-.24"/><path class="g" d="M402.26,437.55c-.54,.1-1.09,.2-1.63,.3,.54-.1,1.09-.2,1.63-.3"/><path class="g" d="M446.26,246.09c-.37-.24-.73-.49-1.1-.73,.37,.24,.73,.49,1.1,.73"/><path class="g" d="M456.67,253.62c-.19-.15-.37-.3-.56-.45,.19,.15,.37,.3,.56,.45"/><path class="g" d="M405.31,436.93c-.53,.11-1.06,.22-1.6,.33,.53-.11,1.06-.21,1.6-.33"/><path class="g" d="M452.98,250.78c-.29-.22-.59-.43-.88-.64,.29,.21,.59,.43,.88,.64"/><path class="g" d="M449.72,248.44c-.38-.26-.76-.52-1.14-.79,.38,.26,.76,.52,1.14,.79"/><path class="g" d="M493.06,329.55c0-32.65-12.14-54.78-31.57-71.89v151.81c19.77-18.26,31.57-44.72,31.57-79.92"/><path class="g" d="M399.18,438.11c-.55,.1-1.1,.18-1.65,.27,.55-.09,1.1-.18,1.65-.27"/><path class="g" d="M413.59,228.15c-.41-.2-.83-.39-1.24-.59,.42,.2,.83,.39,1.24,.59"/><path class="g" d="M376.7,440.55c-.67,.03-1.34,.06-2.01,.08,.67-.03,1.34-.05,2.01-.08"/><path class="g" d="M448.58,247.65c-.77-.52-1.54-1.05-2.32-1.56,.78,.52,1.55,1.04,2.32,1.56"/><path class="g" d="M437.14,240.42c-.87-.51-1.74-1.01-2.62-1.51,.88,.5,1.75,1,2.62,1.51"/><path class="g" d="M404.76,69.1c-.67-.17-1.34-.33-2.01-.49,.67,.16,1.34,.32,2.01,.49"/><path class="g" d="M407.96,69.96c-.63-.18-1.27-.35-1.9-.52,.63,.17,1.27,.34,1.9,.52"/><path class="g" d="M420.89,74.26c-.72-.28-1.43-.55-2.15-.82,.72,.27,1.44,.54,2.15,.82"/><path class="g" d="M401.56,68.32c-.78-.18-1.56-.35-2.34-.52,.78,.17,1.56,.34,2.34,.52"/><path class="g" d="M445.16,245.36c-.97-.63-1.96-1.26-2.95-1.88,.99,.62,1.98,1.25,2.95,1.88"/><path class="g" d="M441.71,243.17c-1.17-.72-2.35-1.44-3.54-2.14,1.19,.71,2.38,1.42,3.54,2.14"/><path class="g" d="M414.34,71.91c-.62-.21-1.24-.41-1.87-.6,.62,.2,1.25,.4,1.87,.6"/><path class="g" d="M417.55,73.01c-.64-.23-1.28-.46-1.92-.68,.64,.22,1.28,.45,1.92,.68"/><path class="g" d="M411.15,70.9c-.62-.19-1.24-.37-1.87-.55,.62,.18,1.24,.37,1.87,.55"/><path class="g" d="M424.88,75.87c-1.01-.43-2.03-.85-3.05-1.25,1.02,.41,2.04,.82,3.05,1.25"/><path class="g" d="M453.93,93.41c-.58-.48-1.16-.95-1.75-1.42,.59,.47,1.17,.94,1.75,1.42"/><path class="g" d="M445.27,86.89c-.59-.4-1.18-.79-1.77-1.18,.6,.39,1.19,.78,1.77,1.18"/><path class="g" d="M448.5,89.16c-.76-.55-1.53-1.1-2.3-1.64,.78,.54,1.54,1.08,2.3,1.64"/><path class="g" d="M416.42,229.5c-.94-.45-1.88-.9-2.83-1.35,.95,.45,1.89,.9,2.83,1.35"/><path class="g" d="M412.35,227.56c-1.35-.63-2.7-1.26-4.06-1.89,1.36,.63,2.72,1.26,4.06,1.89"/><path class="g" d="M451.42,91.37c-.85-.67-1.71-1.32-2.58-1.96,.87,.64,1.73,1.3,2.58,1.96"/><path class="g" d="M461.49,100.45s-.75-.76-1.6-1.6c.54,.53,1.07,1.06,1.6,1.61h0Z"/><path class="g" d="M458.21,97.2c-.28-.26-.57-.52-.86-.78,.53,.49,1.06,.98,1.58,1.48-.26-.26-.51-.5-.72-.7"/><path class="g" d="M398.35,67.61c-1.07-.22-2.14-.43-3.22-.63,1.07,.2,2.15,.41,3.22,.63"/><path class="g" d="M456.38,95.52c-.5-.44-1-.88-1.51-1.31,.51,.43,1.01,.87,1.51,1.31"/><path class="g" d="M459.78,256.16c.58,.49,1.15,1,1.71,1.5v-.02s-.86-.74-1.71-1.47"/><path class="g" d="M456.67,253.62c.91,.72,1.8,1.45,2.68,2.18-.26-.22-.51-.43-.71-.6-.65-.54-1.31-1.06-1.97-1.59"/><path class="g" d="M430.86,78.6c-.64-.31-1.29-.62-1.94-.92,.65,.3,1.3,.61,1.94,.92"/><path class="g" d="M429.47,236.12c-1.15-.62-2.31-1.23-3.49-1.84,1.17,.61,2.33,1.22,3.49,1.84"/><path class="g" d="M427.89,77.2c-.85-.39-1.71-.76-2.57-1.13,.86,.37,1.71,.74,2.57,1.13"/><path class="g" d="M433.24,238.19c-.86-.48-1.72-.96-2.59-1.43,.87,.47,1.74,.95,2.59,1.43"/><path class="g" d="M433.8,80.08c-.59-.31-1.18-.6-1.78-.9,.6,.3,1.19,.6,1.78,.9"/><path class="g" d="M442.4,85.02c-.56-.35-1.11-.7-1.68-1.04,.56,.34,1.12,.69,1.68,1.04"/><path class="g" d="M420.61,231.55c-.93-.46-1.87-.92-2.81-1.38,.94,.46,1.88,.92,2.81,1.38"/><path class="g" d="M439.56,83.28c-.55-.33-1.11-.65-1.67-.97,.56,.32,1.12,.64,1.67,.97"/><path class="g" d="M425.68,234.12c-1.28-.66-2.58-1.32-3.88-1.98,1.3,.65,2.6,1.31,3.88,1.98"/><path class="g" d="M436.7,81.64c-.56-.31-1.13-.62-1.7-.92,.57,.3,1.14,.61,1.7,.92"/><path class="g" d="M458.3,412.31c.11-.09,.23-.2,.35-.3-.37,.32-.75,.63-1.13,.94,.26-.21,.52-.42,.78-.64"/><path class="g" d="M391.21,439.29c-.49,.06-.98,.13-1.48,.18,.49-.06,.99-.12,1.48-.18"/><path class="g" d="M429.62,429.49c-.43,.18-.87,.36-1.3,.53,.44-.18,.87-.35,1.3-.53"/><path class="g" d="M437.5,425.9c-.41,.21-.83,.41-1.24,.61,.41-.2,.83-.4,1.24-.61"/><path class="g" d="M432.29,428.35c-.42,.19-.85,.37-1.28,.56,.43-.18,.85-.37,1.28-.56"/><path class="g" d="M394.39,438.87c-.49,.07-.98,.14-1.48,.21,.49-.07,.99-.14,1.48-.21"/><path class="g" d="M434.92,427.15c-.42,.2-.84,.39-1.26,.58,.42-.19,.84-.38,1.26-.58"/><path class="g" d="M384.75,439.99c-.49,.04-.98,.09-1.47,.13,.49-.04,.98-.09,1.47-.13"/><path class="g" d="M440.03,424.59c-.4,.21-.81,.43-1.22,.64,.41-.21,.81-.42,1.22-.64"/><path class="g" d="M444.96,421.81c-.39,.23-.78,.46-1.17,.69,.39-.23,.78-.46,1.17-.69"/><path class="g" d="M387.99,439.67c-.49,.05-.98,.11-1.47,.16,.49-.05,.98-.11,1.47-.16"/><path class="g" d="M442.52,423.23c-.4,.22-.79,.44-1.19,.66,.4-.22,.8-.44,1.19-.66"/><path class="g" d="M415.62,434.36c-.46,.13-.93,.27-1.4,.4,.47-.13,.93-.26,1.4-.4"/><path class="g" d="M426.9,430.57c-.44,.17-.88,.34-1.32,.5,.44-.17,.88-.33,1.32-.5"/><path class="g" d="M409.75,435.92c-.48,.12-.95,.23-1.43,.34,.48-.11,.95-.23,1.43-.34"/><path class="g" d="M418.5,433.49c-.46,.14-.91,.28-1.37,.42,.46-.14,.92-.28,1.37-.42"/><path class="g" d="M412.71,435.16c-.47,.12-.94,.25-1.41,.37,.47-.12,.94-.25,1.41-.37"/><path class="g" d="M403.71,437.26c-.48,.1-.96,.2-1.45,.29,.48-.09,.96-.19,1.45-.29"/><path class="g" d="M397.53,438.39c-.49,.08-.98,.16-1.47,.24,.49-.08,.98-.16,1.47-.24"/><path class="g" d="M424.14,431.6c-.44,.16-.89,.32-1.34,.47,.45-.16,.89-.31,1.34-.47"/><path class="g" d="M400.63,437.85c-.48,.09-.97,.18-1.45,.26,.49-.08,.97-.17,1.45-.26"/><path class="g" d="M421.34,432.57c-.45,.15-.9,.3-1.35,.45,.45-.15,.9-.3,1.35-.45"/><path class="g" d="M380.86,65.03c-.63-.06-1.27-.11-1.9-.15,.63,.05,1.27,.1,1.9,.15"/><path class="g" d="M377.64,64.78c-.65-.04-1.31-.08-1.96-.11,.65,.03,1.3,.07,1.96,.11"/><path class="g" d="M384.1,65.35c-.63-.07-1.27-.14-1.9-.2,.63,.06,1.26,.13,1.9,.2"/><path class="g" d="M394.42,66.85c-.84-.15-1.67-.3-2.51-.44,.84,.14,1.67,.29,2.51,.44"/><path class="g" d="M374.44,64.6c-.71-.03-1.43-.05-2.14-.07,.71,.02,1.42,.04,2.14,.07"/><path class="g" d="M371.18,440.73c-.39,0-.78,.02-1.17,.03,.39,0,.78-.02,1.17-.03"/><path class="g" d="M452.1,250.14c-.79-.57-1.58-1.14-2.38-1.7,.8,.56,1.6,1.13,2.38,1.7"/><path class="g" d="M390.74,66.24c-.69-.11-1.38-.21-2.07-.31,.69,.1,1.38,.2,2.07,.31"/><path class="g" d="M371.26,64.5c-1.06-.02-2.11-.04-3.15-.04,1.05,0,2.1,.01,3.15,.04"/><path class="g" d="M387.38,65.75c-.65-.09-1.3-.17-1.94-.25,.65,.08,1.29,.16,1.94,.25"/><path class="g" d="M456.11,253.17c-1.03-.81-2.07-1.6-3.13-2.38,1.06,.79,2.1,1.58,3.13,2.38"/><path class="g" d="M454.22,415.57c-.35,.27-.71,.53-1.06,.79,.36-.26,.71-.52,1.06-.79"/><path class="g" d="M378.1,440.47c-.47,.03-.93,.06-1.4,.08,.47-.02,.93-.05,1.4-.08"/><path class="g" d="M451.98,417.22c-.36,.26-.73,.51-1.09,.77,.37-.25,.73-.51,1.09-.77"/><path class="g" d="M447.35,420.34c-.38,.24-.76,.48-1.14,.71,.38-.24,.76-.47,1.14-.71"/><path class="g" d="M449.69,418.8c-.37,.25-.75,.5-1.12,.74,.38-.25,.75-.49,1.12-.74"/><path class="g" d="M381.44,440.25c-.48,.04-.96,.07-1.44,.1,.48-.03,.96-.07,1.44-.1"/><path class="g" d="M461.5,409.48h0c-.12,.1-.25,.22-.37,.33,.23-.2,.37-.33,.37-.33"/><path class="g" d="M456.4,413.87c-.34,.28-.69,.54-1.04,.82,.35-.27,.7-.54,1.04-.82"/><path class="g" d="M374.69,440.63c-.44,.02-.88,.04-1.32,.05,.44-.01,.88-.03,1.32-.05"/><path class="g" d="M459.71,411.08c-.18,.16-.36,.32-.54,.47,.18-.15,.35-.31,.54-.47"/><path class="g" d="M406.75,436.61c-.48,.11-.96,.22-1.44,.32,.48-.1,.96-.21,1.44-.32"/></g></g><g><path class="g" d="M755.85,340.25h-160.58c3.86,25.48,25.09,40.53,50.18,40.53,17.37,0,28.56-6.95,38.99-20.07h65.62c-18.53,42.85-56.36,74.11-104.61,74.11-62.53,0-113.48-50.95-113.48-113.48s49.41-115.03,112.33-115.03,113.1,52.5,113.1,116.96c0,5.79-.39,11.19-1.54,16.98Zm-111.17-79.9c-23.16,0-43.62,13.51-48.64,36.67h97.27c-5.02-23.16-25.48-36.67-48.64-36.67Z"/><path class="g" d="M1057.7,427.88v-113.87c0-23.55-3.09-47.48-32.81-47.48s-35.51,20.07-35.51,44.39v116.96h-64.08v-116.57c0-22-5.02-44.78-32.04-44.78-29.72,0-36.28,22.39-36.28,47.48v113.87h-64.08V213.65h59.83v22.77h.77c12.35-22,34.74-30.11,59.06-30.11,27.79,0,48.64,13.9,61.76,38.21,15.44-24.32,38.99-38.21,67.94-38.21,21.23,0,41.3,6.18,56.36,21.62,24.32,24.7,23.16,50.18,23.16,82.99v116.96h-64.08Z"/><path class="g" d="M1353.76,403.17c-29.34,25.09-56.36,24.7-93.41,24.7h-90.71V142.24h88.01c34.35,0,66.78,.39,91.48,27.79,11.97,13.12,16.98,29.34,16.98,47.09,0,24.32-11.97,45.55-33.2,57.51,31.27,10.81,47.09,33.97,47.09,66.39,0,22.77-8.49,47.09-26.25,62.15Zm-86.08-196.86h-28.18v44.39h27.79c15.83,0,28.95-4.63,28.95-22.77s-13.51-21.62-28.56-21.62Zm8.49,105.38h-36.67v52.11h36.28c18.14,0,34.35-6.18,34.35-27.41s-16.98-24.7-33.97-24.7Z"/><path class="g" d="M1628.98,340.25h-160.58c3.86,25.48,25.09,40.53,50.18,40.53,17.37,0,28.56-6.95,38.99-20.07h65.62c-18.53,42.85-56.36,74.11-104.61,74.11-62.53,0-113.48-50.95-113.48-113.48s49.41-115.03,112.33-115.03,113.1,52.5,113.1,116.96c0,5.79-.39,11.19-1.54,16.98Zm-111.17-79.9c-23.16,0-43.62,13.51-48.64,36.67h97.27c-5.02-23.16-25.48-36.67-48.64-36.67Z"/><path class="g" d="M1826.99,427.88v-23.16h-.77c-11.58,22-39.37,30.49-62.53,30.49-66.01,0-107.69-50.95-107.69-114.64s43.23-114.26,107.69-114.26c23.55,0,49.79,8.88,62.53,30.11h.77v-22.77h64.08v214.23h-64.08Zm-54.04-161.73c-31.27,0-52.88,24.7-52.88,55.2s23.16,54.04,53.27,54.04,53.65-23.93,53.65-54.81-22.77-54.43-54.04-54.43Z"/><path class="g" d="M2041.99,434.83c-64.08,0-114.64-50.57-114.64-114.64s49.41-113.87,113.1-113.87c54.81,0,102.29,35.51,113.48,89.94h-64.85c-9.26-20.07-25.86-30.11-47.86-30.11-30.88,0-49.41,25.48-49.41,54.43s19.69,54.43,50.95,54.43c21.23,0,36.67-10.04,46.32-28.56h65.23c-12.35,52.5-58.29,88.39-112.33,88.39Z"/><path class="g" d="M2294.82,434.44c-65.62,0-115.41-48.25-115.41-113.87s49.79-113.87,115.41-113.87,115.42,48.25,115.42,113.87-49.79,113.87-115.42,113.87Zm0-167.91c-29.72,0-51.34,25.09-51.34,54.04s21.62,54.04,51.34,54.04,51.34-25.09,51.34-54.04-21.62-54.04-51.34-54.04Z"/><path class="g" d="M2580.84,427.88v-116.96c0-23.93-4.63-44.39-33.58-44.39s-36.67,19.3-36.67,44.78v116.57h-64.08V213.65h59.83v22.77h.77c13.51-22,32.42-30.11,58.29-30.11,18.14,0,40.92,6.95,54.81,18.53,20.46,16.98,24.7,44,24.7,69.09v133.94h-64.08Z"/></g></svg>